<?xml version="1.0" standalone="no"?>
<!DOCTYPE svg PUBLIC "-//W3C//DTD SVG 20010904//EN"
 "http://www.w3.org/TR/2001/REC-SVG-20010904/DTD/svg10.dtd">
<svg version="1.0" xmlns="http://www.w3.org/2000/svg"
 width="600.000000pt" height="600.000000pt" viewBox="0 0 600.000000 600.000000"
 preserveAspectRatio="xMidYMid meet">
<metadata>
Created by potrace 1.14, written by Peter Selinger 2001-2017
</metadata>
<g transform="translate(0.000000,600.000000) scale(0.100000,-0.100000)"
fill="#000000" stroke="none">
<path d="M3085 5460 c-3 -5 -15 -10 -26 -10 -14 0 -18 -4 -13 -12 5 -9 2 -9
-9 1 -14 11 -20 11 -34 0 -15 -12 -16 -12 -9 6 6 16 5 18 -5 8 -15 -15 -33
-17 -25 -4 4 5 -3 7 -14 4 -11 -3 -17 -9 -14 -14 3 -5 -2 -6 -10 -3 -9 3 -13
11 -9 18 3 6 1 6 -8 -1 -15 -15 -33 -18 -25 -5 3 5 -1 9 -9 9 -8 0 -12 -4 -10
-8 3 -4 -2 -10 -11 -13 -10 -4 -13 -2 -8 7 5 9 4 9 -7 0 -16 -15 -33 -17 -24
-3 3 6 -1 7 -9 4 -9 -3 -13 -11 -9 -18 5 -8 3 -8 -8 -1 -20 14 -55 12 -51 -4
1 -8 -2 -10 -10 -5 -20 13 -48 15 -48 5 0 -6 -8 -8 -17 -7 -29 6 -65 -12 -57
-26 6 -10 5 -10 -7 -1 -9 7 -20 8 -29 3 -8 -5 -19 -6 -25 -2 -20 13 -35 10
-35 -6 0 -15 -2 -15 -10 -2 -6 9 -13 11 -17 5 -5 -5 -21 -11 -37 -12 -16 -1
-32 -6 -35 -10 -3 -4 -12 -9 -19 -11 -34 -7 -58 -11 -70 -11 -7 -1 -11 -5 -8
-10 3 -4 -6 -7 -19 -5 -14 1 -25 -2 -25 -8 0 -6 -6 -8 -14 -5 -7 3 -23 -1 -35
-9 -11 -8 -21 -12 -21 -8 0 3 -7 1 -15 -6 -8 -6 -19 -9 -25 -5 -5 3 -10 3 -10
-2 0 -4 -11 -13 -25 -20 -14 -6 -23 -7 -19 -2 3 5 -2 6 -10 3 -9 -3 -15 -9
-14 -12 2 -20 -3 -25 -12 -12 -6 10 -10 11 -10 3 0 -7 -8 -13 -17 -13 -9 0
-25 -8 -36 -17 -15 -13 -18 -14 -13 -3 4 8 -2 4 -14 -10 -12 -14 -19 -19 -15
-12 3 6 2 12 -3 12 -6 0 -13 -8 -16 -17 -6 -15 -8 -15 -16 -3 -7 11 -10 12
-10 2 0 -7 -4 -10 -10 -7 -6 4 -7 -1 -3 -12 3 -10 3 -15 -1 -11 -9 8 -66 -11
-83 -28 -7 -6 -9 -15 -5 -20 4 -5 0 -3 -10 4 -14 11 -17 10 -23 -9 -6 -16 -9
-18 -16 -8 -6 11 -9 10 -15 -4 -3 -9 -10 -15 -14 -12 -4 3 -11 -2 -14 -11 -3
-8 -10 -12 -16 -9 -6 3 -13 -1 -16 -9 -3 -9 -12 -16 -20 -16 -8 0 -22 -9 -31
-19 -9 -11 -23 -17 -32 -14 -9 4 -13 3 -9 -2 4 -4 1 -14 -7 -21 -17 -17 -29
-18 -19 -1 4 6 -8 -2 -27 -20 -72 -67 -90 -83 -95 -83 -11 0 -33 -28 -26 -34
3 -4 -2 -4 -11 0 -12 4 -17 2 -15 -7 2 -7 -2 -13 -7 -14 -13 0 -61 -48 -57
-58 1 -4 -4 -6 -10 -5 -7 2 -12 -3 -10 -9 1 -7 -3 -13 -10 -13 -14 0 -108 -96
-108 -110 0 -6 -4 -9 -8 -6 -12 7 -44 -33 -36 -46 5 -7 2 -8 -6 -3 -10 6 -12
4 -6 -10 5 -15 4 -16 -9 -5 -12 10 -15 10 -15 -4 0 -9 -5 -16 -11 -16 -5 0 -7
-4 -4 -10 3 -5 -1 -10 -9 -10 -9 0 -15 -6 -14 -12 2 -7 -3 -12 -9 -10 -11 2
-18 -17 -14 -40 0 -5 -6 -8 -15 -8 -10 0 -14 -5 -10 -16 3 -8 2 -13 -2 -10
-11 7 -43 -31 -39 -47 1 -6 -4 -11 -10 -9 -7 1 -13 -5 -13 -14 0 -9 -5 -12
-12 -8 -7 5 -8 3 -3 -6 4 -7 2 -16 -6 -21 -8 -4 -14 -14 -14 -21 -1 -7 -6 -12
-13 -11 -6 2 -9 -4 -6 -12 4 -8 1 -15 -5 -15 -6 0 -10 -4 -9 -9 2 -5 -6 -17
-17 -26 -11 -9 -13 -13 -5 -9 13 7 13 5 1 -9 -7 -9 -10 -17 -5 -17 5 -1 -1 -9
-13 -19 -12 -10 -19 -21 -16 -25 4 -3 1 -6 -6 -6 -7 0 -9 -4 -6 -10 3 -5 2
-10 -3 -10 -6 0 -13 -7 -16 -16 -4 -10 -2 -13 7 -9 6 4 4 0 -5 -8 -10 -8 -15
-17 -11 -20 3 -4 1 -7 -6 -7 -8 0 -11 -7 -7 -15 3 -9 0 -15 -9 -15 -9 0 -15
-9 -15 -21 0 -12 -8 -28 -17 -36 -10 -8 -12 -12 -6 -8 7 3 13 2 13 -3 0 -6 -7
-13 -16 -16 -9 -4 -14 -9 -10 -13 3 -3 -2 -15 -11 -26 -13 -15 -14 -18 -3 -12
12 7 13 6 3 -7 -7 -8 -10 -18 -6 -21 3 -4 2 -7 -4 -7 -6 0 -14 -7 -17 -16 -4
-10 -2 -13 7 -8 6 4 5 -1 -4 -12 -23 -27 -34 -48 -22 -41 5 3 10 0 10 -8 0 -8
-4 -12 -9 -9 -4 3 -9 0 -9 -5 -2 -12 -5 -26 -9 -38 -1 -5 -2 -11 -1 -15 0 -5
-3 -8 -8 -8 -5 0 -8 -12 -6 -26 1 -14 -3 -28 -11 -31 -7 -2 -11 -13 -9 -24 2
-10 0 -19 -5 -19 -4 0 -7 -11 -5 -25 1 -14 -2 -25 -8 -25 -6 0 -7 -3 -4 -7 4
-3 1 -13 -6 -21 -10 -13 -9 -14 3 -7 13 8 13 6 2 -8 -8 -9 -11 -21 -7 -27 3
-5 1 -10 -5 -10 -7 0 -10 -6 -7 -14 3 -7 0 -19 -6 -25 -8 -8 -7 -11 4 -11 10
-1 9 -5 -5 -15 -14 -11 -16 -15 -5 -15 12 0 12 -2 -1 -10 -8 -5 -11 -12 -7
-16 4 -4 2 -13 -4 -20 -7 -8 -7 -14 1 -19 8 -5 8 -11 -1 -21 -6 -7 -9 -21 -5
-29 3 -8 1 -15 -4 -15 -5 0 -7 -7 -3 -16 3 -9 0 -20 -8 -25 -12 -7 -12 -9 1
-9 13 0 13 -1 0 -10 -13 -9 -13 -11 -1 -19 12 -8 12 -12 2 -25 -7 -8 -10 -20
-6 -26 3 -5 0 -10 -7 -10 -9 0 -9 -3 2 -10 13 -9 13 -10 0 -10 -13 0 -13 -1 0
-10 13 -9 13 -10 0 -10 -12 0 -13 -2 -1 -9 11 -7 11 -9 0 -14 -12 -4 -11 -7 1
-16 13 -10 13 -11 0 -11 -13 0 -13 -1 0 -10 10 -6 11 -10 3 -10 -7 0 -13 -5
-13 -11 0 -5 4 -8 8 -5 4 2 8 -4 8 -15 0 -10 -3 -19 -6 -19 -7 0 -3 -86 5 -99
3 -6 1 -11 -5 -11 -7 0 -8 -6 -2 -17 5 -10 6 -27 2 -38 -9 -24 -2 -45 19 -63
9 -8 10 -11 4 -7 -7 3 -13 3 -14 -2 0 -4 -2 -16 -4 -25 -2 -10 2 -18 8 -18 7
0 5 -5 -3 -10 -12 -8 -12 -10 -1 -10 10 0 11 -3 2 -14 -10 -11 -8 -17 6 -25
12 -7 13 -10 4 -11 -10 0 -11 -3 -2 -14 8 -9 8 -15 2 -18 -7 -2 -6 -13 3 -30
10 -19 11 -29 3 -37 -7 -7 -7 -11 -1 -11 5 0 11 -11 12 -25 3 -48 5 -55 16
-55 6 0 4 -5 -4 -10 -8 -5 -10 -10 -4 -10 11 0 14 -15 14 -58 0 -12 5 -22 10
-22 6 0 10 -5 10 -11 0 -5 -6 -7 -12 -3 -10 6 -10 5 -1 -8 7 -8 10 -18 6 -21
-3 -4 2 -7 13 -8 18 0 18 -1 -1 -9 -11 -5 -14 -9 -7 -9 7 -1 10 -5 7 -11 -3
-5 -2 -10 4 -10 6 0 8 -7 5 -15 -4 -8 -1 -15 4 -15 6 0 9 -9 7 -20 -2 -11 0
-20 6 -20 5 0 9 -12 9 -26 0 -14 4 -23 8 -20 5 3 8 -8 7 -24 -1 -16 2 -27 6
-24 4 2 10 0 14 -6 3 -5 0 -10 -7 -10 -10 0 -10 -2 -1 -8 11 -7 20 -35 22 -69
1 -7 9 -13 19 -14 10 0 12 -3 5 -6 -10 -3 -9 -11 2 -33 8 -16 15 -36 15 -45 0
-9 11 -27 24 -40 17 -17 20 -27 13 -34 -8 -8 -6 -11 6 -11 11 0 14 -5 10 -17
-5 -12 -3 -14 7 -8 10 6 12 4 7 -8 -3 -9 1 -18 10 -21 9 -4 13 -9 10 -13 -4
-3 0 -15 8 -27 8 -11 15 -30 15 -41 0 -17 2 -18 11 -5 9 12 10 11 6 -7 -3 -14
0 -21 7 -20 6 1 10 -4 9 -10 -2 -7 2 -13 8 -13 5 0 7 -4 4 -10 -3 -5 -1 -10 4
-10 6 0 11 -7 11 -15 0 -8 5 -15 10 -15 6 0 10 -7 10 -15 0 -8 5 -15 10 -15 6
0 10 -7 10 -15 0 -9 7 -18 16 -22 8 -3 13 -12 10 -20 -3 -8 -2 -12 2 -10 4 3
13 -1 20 -9 7 -8 10 -14 5 -14 -4 0 2 -7 13 -16 10 -8 12 -12 4 -8 -8 4 -4 -4
10 -19 68 -70 85 -91 60 -71 l-24 19 24 -31 c14 -17 27 -30 30 -29 3 2 11 -3
18 -11 7 -8 10 -14 6 -14 -3 0 4 -9 17 -21 13 -11 17 -18 9 -14 -8 3 -7 0 3
-7 32 -23 58 -46 60 -55 1 -4 5 -7 10 -6 4 2 7 -4 7 -12 0 -8 7 -15 16 -15 8
0 12 -4 9 -10 -3 -5 1 -10 10 -10 9 0 14 -4 10 -9 -3 -5 3 -12 13 -15 10 -3
26 -20 36 -37 11 -19 23 -28 32 -25 8 3 12 2 9 -4 -3 -5 5 -14 17 -21 29 -16
48 -35 48 -48 0 -10 14 -15 33 -12 4 0 7 -6 7 -14 0 -8 3 -14 8 -13 11 4 53
-28 45 -35 -3 -4 3 -7 15 -7 11 0 25 -6 29 -14 4 -7 18 -18 31 -25 12 -7 20
-17 16 -23 -4 -6 1 -8 15 -3 15 4 21 3 19 -7 -2 -8 6 -13 20 -12 19 1 20 -1
10 -14 -11 -13 -10 -15 5 -9 9 3 17 2 17 -3 0 -6 7 -10 15 -10 8 0 15 -5 15
-11 0 -5 5 -7 10 -4 5 3 10 1 10 -6 0 -7 3 -9 7 -6 3 4 12 -1 20 -11 10 -11
12 -12 8 -2 -4 9 0 7 9 -4 8 -10 19 -15 24 -12 5 3 20 -6 32 -19 13 -14 32
-25 42 -25 10 0 27 -9 38 -20 12 -12 20 -15 20 -7 0 6 5 4 11 -7 9 -15 13 -16
20 -5 7 11 9 9 9 -6 0 -17 2 -17 10 -5 8 13 10 12 10 -3 0 -10 4 -15 10 -12 5
3 10 2 10 -3 0 -5 7 -9 15 -10 8 -1 22 -3 30 -4 8 -1 15 -6 15 -11 0 -5 7 -7
15 -3 8 3 14 2 14 -2 -3 -19 3 -22 22 -11 15 8 19 8 15 0 -4 -7 1 -11 13 -11
12 0 21 -4 21 -10 0 -5 14 -10 31 -10 17 0 28 -4 24 -10 -4 -6 1 -7 11 -3 11
4 15 2 11 -4 -4 -6 3 -9 18 -7 14 1 25 -2 25 -7 0 -6 4 -8 9 -4 5 3 12 1 16
-5 4 -6 11 -7 17 -4 6 4 14 0 19 -7 7 -12 9 -11 9 1 0 11 2 12 8 3 5 -7 20
-14 35 -15 15 -1 27 -6 27 -10 0 -4 6 -5 14 -2 8 3 17 0 21 -5 3 -6 11 -9 16
-5 5 3 17 0 25 -7 13 -10 17 -10 24 0 5 9 9 10 11 2 2 -6 25 -12 51 -14 25 -1
43 -6 40 -11 -3 -5 3 -6 13 -2 11 4 22 2 27 -6 6 -10 10 -10 18 2 9 13 10 13
10 0 0 -13 2 -13 9 -1 8 12 12 11 27 -3 13 -14 19 -15 25 -4 7 10 9 10 9 -2 0
-13 1 -13 10 0 8 13 10 13 10 0 0 -11 3 -11 12 -2 9 9 16 8 32 -6 14 -12 17
-13 11 -2 -8 13 -7 13 8 1 12 -9 17 -10 17 -2 0 7 5 9 11 5 15 -9 143 -9 158
0 6 4 11 2 11 -4 0 -7 6 -8 18 -1 11 6 24 6 33 0 21 -13 29 -11 30 9 0 14 2
14 7 2 8 -17 62 -22 62 -5 0 5 5 3 10 -5 7 -11 10 -11 10 -2 0 7 5 10 10 7 6
-4 17 -1 25 5 11 9 15 9 15 1 0 -6 5 -11 11 -11 5 0 7 6 3 13 -5 8 -2 8 9 -2
14 -11 17 -11 17 0 0 9 3 10 11 2 8 -8 18 -7 37 3 19 9 30 10 39 2 9 -8 13 -7
13 2 0 7 7 10 15 7 8 -4 17 -2 20 3 9 15 27 12 20 -2 -4 -7 0 -6 7 4 10 12 19
13 31 7 12 -7 17 -6 17 1 0 6 5 8 11 5 5 -4 19 1 30 11 19 17 20 17 13 -2 -7
-18 -7 -18 16 1 13 11 20 14 16 8 -4 -7 -2 -13 3 -13 6 0 11 5 11 11 0 6 7 9
15 6 8 -4 17 -2 20 3 4 6 19 10 35 10 16 0 32 5 35 10 4 6 11 7 17 4 6 -4 17
1 25 11 7 11 13 14 13 7 0 -6 7 -9 15 -6 8 4 12 11 8 18 -4 6 1 5 10 -3 11 -9
17 -10 17 -2 0 6 3 10 8 10 4 -1 10 0 15 1 12 4 26 7 38 9 5 0 8 5 5 10 -3 4
6 6 21 3 19 -4 24 -2 18 8 -5 9 -4 11 4 6 6 -4 18 -2 26 4 8 7 15 9 15 4 0 -5
4 -4 8 3 4 6 20 14 36 17 16 3 32 9 35 13 7 9 70 34 88 36 7 0 10 4 7 8 -2 4
9 10 26 14 16 4 30 11 30 16 0 6 5 7 10 4 6 -3 10 -1 10 5 0 6 5 8 10 5 6 -3
10 -1 10 5 0 6 4 9 9 6 5 -3 12 1 15 9 3 8 10 14 15 13 5 -2 17 6 26 17 9 11
14 14 10 8 -11 -22 24 -14 35 7 6 11 14 19 18 16 9 -5 33 20 25 27 -2 3 3 4
14 2 10 -1 26 7 36 19 10 11 16 15 12 9 -4 -8 -1 -11 9 -7 9 3 14 9 13 12 -1
4 2 8 6 9 5 1 17 11 26 22 10 11 21 18 25 14 3 -3 6 -1 6 6 0 8 7 11 15 7 8
-3 14 -2 12 2 -3 10 40 51 47 45 3 -4 6 -1 6 5 0 7 7 12 16 12 8 0 12 5 9 10
-3 6 -1 10 4 10 16 0 51 32 45 42 -3 4 0 8 7 8 6 0 18 8 26 18 8 9 12 11 8 5
-4 -8 -1 -11 9 -7 9 3 12 12 9 21 -4 10 -2 14 4 10 6 -4 18 5 27 18 10 15 22
23 29 19 7 -4 9 -4 5 0 -4 4 9 21 28 38 19 16 31 35 27 41 -3 6 -1 7 5 3 6 -3
16 3 22 14 6 11 15 18 21 15 5 -4 9 -3 8 2 -3 14 13 43 21 38 4 -3 10 5 13 16
3 12 10 18 16 15 6 -4 13 5 17 19 3 13 10 22 15 19 8 -5 13 9 10 28 0 5 6 8
14 8 8 0 15 4 15 8 0 5 9 19 20 32 11 12 17 27 14 32 -3 4 0 7 6 6 7 -2 14 6
16 17 1 11 16 30 31 42 15 13 25 23 21 23 -4 0 4 12 17 26 14 15 25 35 25 44
0 10 7 21 16 24 8 3 13 10 9 15 -3 6 3 14 12 20 10 6 14 11 10 11 -5 0 1 13
12 29 12 16 21 37 21 46 0 10 5 13 12 9 8 -5 9 -2 5 9 -3 10 -3 17 2 17 5 0
12 11 15 25 4 14 11 23 15 20 5 -3 7 5 3 17 -4 16 -2 19 8 13 10 -6 12 -4 7 8
-4 10 -2 17 4 17 6 0 9 9 6 20 -3 11 0 18 7 17 6 -1 10 6 8 17 -2 12 1 16 9
10 9 -5 10 -2 6 9 -3 10 -2 17 4 17 6 0 7 5 4 10 -3 5 -1 10 5 10 6 0 9 4 5 9
-3 6 4 26 16 47 11 20 18 46 16 56 -3 11 -1 16 6 11 6 -4 8 2 5 15 -4 12 -2
20 3 16 5 -3 9 1 10 8 0 7 3 22 6 33 2 11 5 28 6 37 1 9 4 15 8 12 6 -3 20 43
23 76 1 8 5 21 9 28 5 7 3 12 -5 12 -10 0 -10 2 1 9 8 5 10 14 6 21 -6 9 -4
11 5 5 10 -6 12 -1 8 18 -3 15 -1 24 3 21 5 -3 9 -1 9 5 0 5 -6 12 -12 14 -8
3 -5 6 5 6 10 1 15 6 12 11 -4 6 -1 18 7 27 11 14 11 16 -1 8 -11 -6 -13 -4
-7 11 12 30 18 57 17 79 0 11 5 23 12 27 8 5 8 8 1 8 -7 0 -10 21 -9 58 2 31
4 57 5 57 1 0 4 24 6 53 2 38 -1 50 -9 45 -9 -5 -9 -3 -1 8 16 20 16 82 1 72
-7 -4 -6 0 2 10 10 13 11 20 2 31 -10 11 -8 17 6 25 10 6 13 11 7 11 -14 0
-13 72 1 82 7 5 7 8 0 8 -6 0 -10 12 -9 28 0 15 -4 30 -10 34 -8 5 -7 8 2 8 6
0 12 7 12 15 0 8 -4 15 -10 15 -5 0 -10 9 -10 21 0 11 4 17 10 14 6 -3 7 1 4
9 -3 9 -11 16 -18 16 -7 0 -7 3 -1 8 12 8 16 44 5 37 -4 -3 -11 2 -14 11 -3 8
-2 12 4 9 5 -3 8 4 7 15 -1 11 -4 20 -7 20 -11 0 -8 35 4 42 7 5 7 8 -3 8 -7
0 -11 6 -7 15 3 10 -1 15 -12 15 -10 0 -13 3 -7 8 15 11 19 46 4 36 -9 -5 -10
-2 -6 11 4 9 2 25 -5 33 -8 10 -9 13 -1 9 7 -5 9 0 6 13 -3 11 -9 17 -14 15
-4 -3 -6 6 -3 21 3 15 1 23 -5 19 -6 -3 -9 9 -7 31 2 26 -3 43 -16 56 -10 10
-14 18 -10 18 4 0 8 9 8 19 0 11 -3 18 -7 15 -4 -2 -10 3 -13 12 -4 10 -2 13
7 9 6 -4 4 0 -5 7 -9 8 -16 21 -16 29 2 38 -3 51 -17 45 -12 -4 -13 -2 -5 13
7 14 6 20 -4 24 -7 3 -12 16 -11 30 2 15 -3 28 -11 31 -8 3 -14 14 -12 23 2
11 -2 17 -10 15 -9 -2 -11 4 -7 18 4 12 2 20 -5 20 -6 0 -8 5 -5 10 3 6 1 10
-6 10 -7 0 -9 3 -6 7 4 3 1 13 -6 21 -9 13 -9 14 0 8 9 -5 11 -2 7 8 -3 9 -10
13 -15 10 -5 -3 -9 2 -9 10 0 9 -6 16 -12 16 -9 0 -8 4 2 10 10 6 11 10 3 10
-7 0 -13 7 -13 15 0 8 -5 15 -10 15 -6 0 -9 6 -8 13 2 6 -3 11 -11 9 -12 -3
-12 -1 0 14 8 10 9 15 3 11 -7 -4 -18 1 -25 10 -10 12 -10 14 -1 9 20 -12 14
5 -9 25 -11 9 -21 21 -22 26 -1 4 -6 7 -11 5 -5 -2 -6 4 -3 13 4 8 1 15 -5 15
-6 0 -9 3 -5 6 3 4 -2 14 -11 23 -10 9 -11 12 -3 6 8 -5 4 4 -9 22 -13 18 -27
30 -31 27 -4 -2 -6 5 -4 17 2 12 2 19 -2 16 -3 -4 -17 5 -30 19 -25 27 -30 40
-11 28 7 -4 8 -3 4 4 -4 7 -14 12 -22 12 -8 0 -13 4 -9 9 3 5 -5 17 -17 25
-12 9 -19 18 -16 22 4 3 -4 16 -17 29 -14 12 -22 25 -18 28 3 4 -1 7 -10 7 -9
0 -17 4 -17 8 0 5 -7 17 -16 28 -8 10 -12 12 -8 4 4 -9 3 -12 -2 -7 -5 5 -10
13 -10 18 -1 5 -2 14 -3 19 0 6 -8 10 -16 10 -8 0 -15 4 -15 8 0 5 -7 17 -16
28 -8 10 -12 13 -8 5 5 -9 3 -12 -4 -7 -7 4 -12 14 -12 23 0 10 -6 13 -16 9
-8 -3 -13 -2 -10 3 7 10 -49 71 -65 71 -5 0 -7 5 -4 10 3 6 -1 10 -9 10 -8 0
-17 9 -21 20 -3 11 -9 19 -13 19 -21 -3 -32 3 -32 17 0 9 -9 18 -20 21 -11 3
-20 9 -20 14 0 5 -6 9 -14 9 -7 0 -16 9 -19 20 -3 13 -10 18 -21 14 -11 -4
-16 -1 -16 10 0 9 -7 16 -15 16 -8 0 -15 6 -15 13 0 8 -4 7 -10 -3 -8 -12 -10
-10 -10 9 0 21 -2 22 -17 10 -10 -7 -15 -10 -11 -5 8 10 -15 36 -31 36 -6 0
-11 4 -11 9 0 5 -13 14 -30 21 -16 7 -30 16 -30 21 0 5 -7 9 -15 9 -8 0 -15 5
-15 12 0 6 -3 8 -7 5 -3 -4 -14 0 -24 9 -11 10 -27 14 -39 11 -18 -5 -19 -3
-9 9 10 12 10 15 -2 12 -8 -2 -13 2 -12 8 1 6 -3 11 -10 11 -24 1 -41 8 -61
27 -14 14 -21 16 -24 7 -3 -8 -8 -7 -19 6 -8 10 -11 11 -7 3 4 -8 -3 -5 -15 8
-24 24 -36 29 -26 10 4 -7 0 -5 -8 5 -8 9 -22 17 -31 17 -9 0 -16 6 -16 13 0
9 -2 9 -9 -1 -7 -11 -10 -10 -15 3 -3 9 -12 15 -19 12 -6 -2 -18 3 -25 12 -11
13 -12 13 -6 1 5 -10 0 -9 -14 4 -12 11 -22 15 -22 11 0 -5 -5 -4 -11 2 -6 6
-18 9 -25 6 -8 -3 -14 0 -14 7 0 7 -8 10 -19 7 -12 -3 -22 1 -25 9 -3 8 -10
14 -16 14 -6 0 -9 -4 -6 -8 3 -5 -1 -9 -9 -9 -8 0 -14 3 -13 6 2 26 -3 33 -16
22 -10 -8 -15 -8 -18 -1 -2 6 -20 11 -40 12 -21 1 -35 5 -32 10 4 7 -31 12
-73 11 -7 -1 -10 4 -6 10 4 6 0 8 -10 4 -10 -3 -17 -3 -17 1 0 5 -13 7 -30 6
-16 -1 -30 2 -30 7 0 5 -11 9 -24 9 -14 0 -28 5 -31 10 -5 8 -11 7 -21 -1 -13
-11 -19 -5 -14 16 1 5 -7 2 -17 -8 -13 -11 -23 -13 -29 -7 -6 6 -27 11 -47 12
-23 1 -34 5 -30 12 4 6 -1 5 -10 -3 -10 -7 -17 -9 -17 -3 0 12 -18 11 -39 -2
-10 -6 -12 -5 -7 2 5 9 -5 11 -33 9 -23 -2 -41 1 -41 6 0 5 -6 4 -14 -2 -11
-9 -16 -9 -22 0 -5 8 -3 9 6 4 9 -5 11 -4 6 4 -5 7 -13 8 -19 4 -15 -10 -68
-10 -84 0 -6 4 -14 3 -18 -3z m1825 -4334 c0 -2 -8 -10 -17 -17 -16 -13 -17
-12 -4 4 13 16 21 21 21 13z"/>
<path d="M5175 1440 c-3 -5 -1 -10 4 -10 6 0 11 5 11 10 0 6 -2 10 -4 10 -3 0
-8 -4 -11 -10z"/>
</g>
</svg>
